# xmcd
#
# Track frame offsets: 
#        200
#        16990
#        29870
#        47712
#        61050
#        80495
#        91890
#        108860
#        118747
#        131882
#        139882
#        151842
#        164772
#        176972
#
# Disc length: 2504 seconds
#
# Revision: 2
# Processed by: cddbd v1.5.2PL0 Copyright (c) Steve Scherf et al.
# Submitted via: ExactAudioCopy v1.3
#
DISCID=c309c60e
DTITLE=Boozoo Chavis - Boozoo, That's Who!
DYEAR=1993
DGENRE=Zydeco
TTITLE0=Lula Lula Don't You Go to Bingo
TTITLE1=Boozoo's Payback
TTITLE2=I'm Going to the Country to Get Me a Mojo Hand
TTITLE3=Grand Mary's Two Step
TTITLE4=You Used to Call Me
TTITLE5=Boozoo, That's Who!
TTITLE6=Oh Bye Mon Neg
TTITLE7=Billy Goat Number Three
TTITLE8=Oh Black Gal
TTITLE9=Oh Bye Bye
TTITLE10=Went to New York
TTITLE11=Beg Leg Woman
TTITLE12=Oh Ya Oh Ya My Foot Hurts
TTITLE13=Boozoo's Shuffle
EXTD=
EXTT0=
EXTT1=
EXTT2=
EXTT3=
EXTT4=
EXTT5=
EXTT6=
EXTT7=
EXTT8=
EXTT9=
EXTT10=
EXTT11=
EXTT12=
EXTT13=
PLAYORDER=
